<svg width="26" height="19" viewBox="0 0 26 19" fill="none" xmlns="http://www.w3.org/2000/svg">
<path d="M0 1.89728C0 1.63206 0.135502 1.37771 0.376696 1.19017C0.617891 1.00263 0.945021 0.897278 1.28612 0.897278H24.4363C24.7774 0.897278 25.1046 1.00263 25.3457 1.19017C25.5869 1.37771 25.7224 1.63206 25.7224 1.89728C25.7224 2.16249 25.5869 2.41685 25.3457 2.60438C25.1046 2.79192 24.7774 2.89728 24.4363 2.89728H1.28612C0.945021 2.89728 0.617891 2.79192 0.376696 2.60438C0.135502 2.41685 0 2.16249 0 1.89728Z" fill="black"/>
<path d="M0 9.89728C0 9.63206 0.135502 9.37771 0.376696 9.19017C0.617891 9.00263 0.945021 8.89728 1.28612 8.89728H24.4363C24.7774 8.89728 25.1046 9.00263 25.3457 9.19017C25.5869 9.37771 25.7224 9.63206 25.7224 9.89728C25.7224 10.1625 25.5869 10.4168 25.3457 10.6044C25.1046 10.7919 24.7774 10.8973 24.4363 10.8973H1.28612C0.945021 10.8973 0.617891 10.7919 0.376696 10.6044C0.135502 10.4168 0 10.1625 0 9.89728Z" fill="black"/>
<path d="M1.28612 16.8973C0.945021 16.8973 0.617891 17.0026 0.376696 17.1902C0.135502 17.3777 0 17.6321 0 17.8973C0 18.1625 0.135502 18.4168 0.376696 18.6044C0.617891 18.7919 0.945021 18.8973 1.28612 18.8973H24.4363C24.7774 18.8973 25.1046 18.7919 25.3457 18.6044C25.5869 18.4168 25.7224 18.1625 25.7224 17.8973C25.7224 17.6321 25.5869 17.3777 25.3457 17.1902C25.1046 17.0026 24.7774 16.8973 24.4363 16.8973H1.28612Z" fill="black"/>
</svg>
