<svg id="svg" version="1.1" xmlns="http://www.w3.org/2000/svg" xmlns:xlink="http://www.w3.org/1999/xlink" width="400" height="400" viewBox="0, 0, 400,400"><g id="svgg"><path id="path0" d="M262.306 54.038 C 232.944 56.330,215.595 70.071,209.833 95.600 C 208.084 103.350,207.896 106.067,207.645 127.133 C 207.410 146.846,207.369 147.688,206.624 148.233 C 205.991 148.695,203.433 148.800,192.813 148.800 C 181.663 148.800,179.649 148.890,178.889 149.423 L 178.000 150.045 178.000 173.761 C 178.000 196.228,178.039 197.511,178.731 198.138 C 179.381 198.726,180.934 198.800,192.550 198.800 L 205.636 198.800 206.618 199.782 L 207.600 200.764 207.600 271.582 C 207.600 341.867,207.606 342.406,208.400 343.200 C 209.232 344.032,264.594 344.500,265.875 343.686 C 267.167 342.864,267.200 341.066,267.200 270.597 L 267.200 200.045 268.089 199.423 C 268.862 198.881,271.358 198.800,287.227 198.800 C 304.935 198.800,305.497 198.776,306.196 198.004 C 306.862 197.269,311.564 156.799,311.592 151.562 C 311.608 148.679,312.575 148.800,289.513 148.800 C 270.389 148.800,268.825 148.749,268.016 148.093 L 267.143 147.386 267.295 131.193 C 267.546 104.412,267.806 104.160,295.525 103.726 C 307.741 103.535,310.554 103.388,311.025 102.918 C 311.879 102.064,311.886 55.745,311.032 54.576 C 310.403 53.715,271.898 53.289,262.306 54.038 " stroke="none" fill="#fbfbfb" fill-rule="evenodd"></path><path id="path1" d="M63.266 12.868 C 37.163 16.163,16.961 36.194,13.011 62.697 C 12.084 68.913,12.084 331.087,13.011 337.303 C 16.748 362.379,34.191 380.972,59.186 386.525 L 63.000 387.372 198.400 387.491 L 333.800 387.610 338.800 386.768 C 363.166 382.663,381.046 365.423,386.474 340.800 L 387.400 336.600 387.400 200.000 L 387.400 63.400 386.474 59.200 C 381.227 35.398,364.918 19.020,341.000 13.535 L 337.000 12.618 201.600 12.558 C 120.548 12.522,65.022 12.647,63.266 12.868 M311.032 54.576 C 311.886 55.745,311.879 102.064,311.025 102.918 C 310.554 103.388,307.741 103.535,295.525 103.726 C 267.806 104.160,267.546 104.412,267.295 131.193 L 267.143 147.386 268.016 148.093 C 268.825 148.749,270.389 148.800,289.513 148.800 C 312.575 148.800,311.608 148.679,311.592 151.562 C 311.564 156.799,306.862 197.269,306.196 198.004 C 305.497 198.776,304.935 198.800,287.227 198.800 C 271.358 198.800,268.862 198.881,268.089 199.423 L 267.200 200.045 267.200 270.597 C 267.200 341.066,267.167 342.864,265.875 343.686 C 264.594 344.500,209.232 344.032,208.400 343.200 C 207.606 342.406,207.600 341.867,207.600 271.582 L 207.600 200.764 206.618 199.782 L 205.636 198.800 192.550 198.800 C 180.934 198.800,179.381 198.726,178.731 198.138 C 178.039 197.511,178.000 196.228,178.000 173.761 L 178.000 150.045 178.889 149.423 C 179.649 148.890,181.663 148.800,192.813 148.800 C 203.433 148.800,205.991 148.695,206.624 148.233 C 207.369 147.688,207.410 146.846,207.645 127.133 C 207.896 106.067,208.084 103.350,209.833 95.600 C 215.595 70.071,232.944 56.330,262.306 54.038 C 271.898 53.289,310.403 53.715,311.032 54.576 " stroke="none" fill="#512D7D" fill-rule="evenodd"></path></g></svg>
