<?xml version="1.0" encoding="UTF-8" standalone="no"?>
<svg
   id="svg"
   version="1.1"
   width="30"
   height="30"
   viewBox="0 0 30 30"
   sodipodi:docname="facebook-white.svg"
   inkscape:version="1.2.1 (9c6d41e410, 2022-07-14)"
   xmlns:inkscape="http://www.inkscape.org/namespaces/inkscape"
   xmlns:sodipodi="http://sodipodi.sourceforge.net/DTD/sodipodi-0.dtd"
   xmlns="http://www.w3.org/2000/svg"
   xmlns:svg="http://www.w3.org/2000/svg">
  <defs
     id="defs8" />
  <sodipodi:namedview
     id="namedview6"
     pagecolor="#a14a96"
     bordercolor="#666666"
     borderopacity="1.0"
     inkscape:showpageshadow="2"
     inkscape:pageopacity="0"
     inkscape:pagecheckerboard="0"
     inkscape:deskcolor="#d1d1d1"
     showgrid="false"
     inkscape:zoom="8.64"
     inkscape:cx="12.44213"
     inkscape:cy="37.5"
     inkscape:window-width="1920"
     inkscape:window-height="1053"
     inkscape:window-x="0"
     inkscape:window-y="0"
     inkscape:window-maximized="1"
     inkscape:current-layer="svg" />
  <g
     id="svgg"
     transform="matrix(0.075387,0,0,0.075387,-0.06668562,-0.0835014)">
    <path
       id="path0"
       d="m 262.306,54.038 c -29.362,2.292 -46.711,16.033 -52.473,41.562 -1.749,7.75 -1.937,10.467 -2.188,31.533 -0.235,19.713 -0.276,20.555 -1.021,21.1 -0.633,0.462 -3.191,0.567 -13.811,0.567 -11.15,0 -13.164,0.09 -13.924,0.623 L 178,150.045 v 23.716 c 0,22.467 0.039,23.75 0.731,24.377 0.65,0.588 2.203,0.662 13.819,0.662 h 13.086 l 0.982,0.982 0.982,0.982 v 70.818 c 0,70.285 0.006,70.824 0.8,71.618 0.832,0.832 56.194,1.3 57.475,0.486 1.292,-0.822 1.325,-2.62 1.325,-73.089 v -70.552 l 0.889,-0.622 c 0.773,-0.542 3.269,-0.623 19.138,-0.623 17.708,0 18.27,-0.024 18.969,-0.796 0.666,-0.735 5.368,-41.205 5.396,-46.442 0.016,-2.883 0.983,-2.762 -22.079,-2.762 -19.124,0 -20.688,-0.051 -21.497,-0.707 l -0.873,-0.707 0.152,-16.193 c 0.251,-26.781 0.511,-27.033 28.23,-27.467 12.216,-0.191 15.029,-0.338 15.5,-0.808 0.854,-0.854 0.861,-47.173 0.007,-48.342 -0.629,-0.861 -39.134,-1.287 -48.726,-0.538"
       stroke="none"
       fill="none"
       fill-rule="evenodd" />
    <path
       id="path1"
       d="m 63.266,12.868 c -26.103,3.295 -46.305,23.326 -50.255,49.829 -0.927,6.216 -0.927,268.39 0,274.606 3.737,25.076 21.18,43.669 46.175,49.222 l 3.814,0.847 135.4,0.119 135.4,0.119 5,-0.842 c 24.366,-4.105 42.246,-21.345 47.674,-45.968 l 0.926,-4.2 V 200 63.4 l -0.926,-4.2 C 381.227,35.398 364.918,19.02 341,13.535 l -4,-0.917 -135.4,-0.06 C 120.548,12.522 65.022,12.647 63.266,12.868 m 247.766,41.708 c 0.854,1.169 0.847,47.488 -0.007,48.342 -0.471,0.47 -3.284,0.617 -15.5,0.808 -27.719,0.434 -27.979,0.686 -28.23,27.467 l -0.152,16.193 0.873,0.707 c 0.809,0.656 2.373,0.707 21.497,0.707 23.062,0 22.095,-0.121 22.079,2.762 -0.028,5.237 -4.73,45.707 -5.396,46.442 -0.699,0.772 -1.261,0.796 -18.969,0.796 -15.869,0 -18.365,0.081 -19.138,0.623 l -0.889,0.622 v 70.552 c 0,70.469 -0.033,72.267 -1.325,73.089 -1.281,0.814 -56.643,0.346 -57.475,-0.486 -0.794,-0.794 -0.8,-1.333 -0.8,-71.618 v -70.818 l -0.982,-0.982 -0.982,-0.982 H 192.55 c -11.616,0 -13.169,-0.074 -13.819,-0.662 -0.692,-0.627 -0.731,-1.91 -0.731,-24.377 v -23.716 l 0.889,-0.622 c 0.76,-0.533 2.774,-0.623 13.924,-0.623 10.62,0 13.178,-0.105 13.811,-0.567 0.745,-0.545 0.786,-1.387 1.021,-21.1 0.251,-21.066 0.439,-23.783 2.188,-31.533 5.762,-25.529 23.111,-39.27 52.473,-41.562 9.592,-0.749 48.097,-0.323 48.726,0.538"
       stroke="none"
       fill="#ffffff"
       fill-rule="evenodd" />
  </g>
</svg>
