<svg width="265" height="86" viewBox="0 0 265 86" fill="none" xmlns="http://www.w3.org/2000/svg">
<path d="M136.465 57.6722C129.193 57.6722 128.874 55.5888 128.874 51.2479V36.8657C128.874 32.4911 129.193 30.3864 136.465 30.3864H137.11C144.415 30.3864 144.753 32.6072 144.753 36.8657V46.0547L134.136 46.2532V51.3915C134.136 53.035 134.897 53.8292 136.465 53.8292H137.207C138.775 53.8292 139.536 53.0319 139.536 51.3915V50.1176H144.753V51.2479C144.753 55.4727 144.415 57.6722 137.11 57.6722H136.465ZM136.465 34.2324C134.919 34.2324 134.136 35.0694 134.136 36.7282V42.5324H139.445V36.7282C139.445 35.0725 138.656 34.2324 137.11 34.2324H136.465Z" fill="white"/>
<path d="M152.049 57.4802L147.459 30.6862H152.176L155.455 50.8573H157.774L161.055 30.6862H165.727L161.18 57.4802H152.049Z" fill="white"/>
<path d="M176.17 57.6722C168.898 57.6722 168.579 55.5888 168.579 51.2479V36.8657C168.579 32.4911 168.898 30.3864 176.17 30.3864H176.815C184.12 30.3864 184.458 32.6072 184.458 36.8657V46.0547L173.848 46.2532V51.3915C173.848 53.035 174.608 53.8292 176.173 53.8292H176.919C178.483 53.8292 179.247 53.0319 179.247 51.3915V50.1176H184.458V51.2479C184.458 55.4727 184.12 57.6722 176.815 57.6722H176.17ZM176.17 34.2324C174.624 34.2324 173.844 35.0694 173.844 36.7282V42.5324H179.147V36.7282C179.147 35.0725 178.361 34.2324 176.812 34.2324H176.17Z" fill="white"/>
<path d="M195.969 57.6725C188.7 57.6725 188.378 55.5891 188.378 51.2451V36.869C188.378 32.4944 188.7 30.3835 195.969 30.3835H196.763C204.035 30.3835 204.357 32.4944 204.357 36.869V40.825H199.046V36.869C199.046 35.2499 198.276 34.4312 196.763 34.4312H195.969C194.404 34.4312 193.643 35.2316 193.643 36.869V51.2451C193.643 52.8611 194.423 53.6828 195.969 53.6828H196.763C197.801 53.6828 199.046 53.2582 199.046 51.2451V47.4449H204.357V51.2451C204.357 55.5921 204.035 57.6725 196.763 57.6725H195.969Z" fill="white"/>
<path d="M216.17 57.6724C208.956 57.6724 208.625 55.4882 208.625 51.2909V36.8689C208.625 32.6471 208.956 30.4354 216.17 30.4354H217.059C224.239 30.4354 224.552 32.528 224.552 36.8689V51.2909C224.552 55.6104 224.239 57.6724 217.059 57.6724H216.17ZM216.222 34.3365C214.621 34.3365 213.841 35.1643 213.841 36.8689V51.2909C213.841 52.9466 214.627 53.7806 216.17 53.7806H217.059C218.608 53.7806 219.393 52.9466 219.393 51.2909L219.439 36.8781C219.439 35.1888 218.641 34.3365 217.059 34.3365H216.222Z" fill="white"/>
<path d="M236.365 57.6727C229.158 57.6727 228.826 55.4885 228.826 51.2911V36.8692C228.826 32.6474 229.158 30.4357 236.365 30.4357H237.26C244.434 30.4357 244.76 32.5282 244.76 36.8692V51.2911C244.76 55.6106 244.437 57.6727 237.26 57.6727H236.365ZM236.417 34.3367C234.816 34.3367 234.034 35.1646 234.034 36.8692V51.2911C234.034 52.9468 234.822 53.7808 236.368 53.7808H237.263C238.809 53.7808 239.592 52.9468 239.592 51.2911L239.637 36.8783C239.637 35.189 238.84 34.3367 237.263 34.3367H236.417Z" fill="white"/>
<path d="M259.086 30.4354H258.146C255.084 30.4354 250.999 30.5698 249.069 30.6401V66.1588L254.234 61.6407V59.206V57.4555V53.4384V34.7305H256.356H257.406C259.016 34.7305 259.835 35.6378 259.835 37.4157V50.6982C259.835 52.5128 259.013 53.4384 257.406 53.4384H256.356V57.4983C257.141 57.5166 258.209 57.5319 258.791 57.5319H259.728C263.813 57.5319 265 56.7865 265 51.8896V36.374C265 31.8804 263.563 30.4354 259.086 30.4354Z" fill="white"/>
<path d="M119.389 26.5955V28.9141H119.404V53.3895H119.389V53.4415H116.218C113.792 53.4415 113.792 51.3764 113.792 50.7013V37.4188C113.792 36.7529 113.792 34.7336 116.218 34.7336H117.286V30.689H113.901C109.747 30.689 108.627 31.3733 108.627 36.2305V51.8927C108.627 56.8507 110.453 57.6786 114.544 57.6786H115.481C118.473 57.6786 122.6 57.5716 124.557 57.5197V21.3595L119.389 26.5955Z" fill="white"/>
<path d="M65.4392 85.4869H38.8616C38.7398 85.4869 38.6272 85.4136 38.5785 85.2975C38.5298 85.1845 38.5542 85.0531 38.6394 84.9615L65.8379 56.8447C65.8958 56.7836 65.9749 56.75 66.0571 56.75H93.3439C93.4687 56.75 93.5813 56.8264 93.6269 56.9394C93.6756 57.0555 93.6483 57.1868 93.56 57.2754L65.6523 85.3922C65.5975 85.4533 65.5183 85.4869 65.4392 85.4869ZM39.586 84.8699H65.3114L92.6043 57.3671H66.188L39.586 84.8699Z" fill="white"/>
<path d="M28.2149 29.2501H0.928058C0.803266 29.2501 0.690649 29.1737 0.644994 29.0607C0.596294 28.9446 0.623688 28.8133 0.711955 28.7247L28.6166 0.604829C28.6745 0.546787 28.7536 0.513184 28.8327 0.513184H56.0495C56.1743 0.513184 56.2869 0.589555 56.3326 0.702584C56.3782 0.815613 56.3539 0.950027 56.2656 1.03862L28.434 29.1585C28.3762 29.2165 28.297 29.2501 28.2149 29.2501ZM1.66768 28.633H28.0901L55.3129 1.13026H28.9606L1.66768 28.633Z" fill="white"/>
<path d="M28.8364 85.4868C28.7573 85.4868 28.6781 85.4562 28.6203 85.3951L0.60303 57.2784C0.5452 57.2203 0.511719 57.1409 0.511719 57.0615V28.9416C0.511719 28.8591 0.5452 28.7828 0.60303 28.7247L28.6173 0.604866C28.7055 0.516275 28.8364 0.488782 28.9521 0.537659C29.0677 0.586537 29.1408 0.696511 29.1408 0.82176V85.1782C29.1408 85.3035 29.0647 85.4165 28.9521 85.4623C28.9156 85.4776 28.876 85.4868 28.8364 85.4868ZM1.12655 56.9332L28.529 84.4359V1.56714L1.12655 29.0669V56.9332Z" fill="white"/>
<path d="M33.2377 85.4868H28.8365C28.7543 85.4868 28.6752 85.4532 28.6204 85.3952L0.709626 57.2784C0.621358 57.1898 0.597009 57.0584 0.642664 56.9423C0.691364 56.8262 0.803981 56.7529 0.925729 56.7529H61.1424C61.2671 56.7529 61.3798 56.8293 61.4254 56.9423C61.4741 57.0584 61.4467 57.1898 61.3585 57.2784L33.4507 85.3952C33.399 85.4532 33.3199 85.4868 33.2377 85.4868ZM28.9643 84.8697H33.1129L60.4058 57.367H1.66839L28.9643 84.8697Z" fill="white"/>
<path d="M65.4392 85.4868C65.3997 85.4868 65.3601 85.4776 65.3205 85.4623C65.2049 85.4135 65.1318 85.3035 65.1318 85.1782V0.82176C65.1318 0.696511 65.2079 0.583482 65.3205 0.537659C65.4362 0.488782 65.5671 0.516275 65.6554 0.604866L93.6726 28.7247C93.7305 28.7828 93.7639 28.8622 93.7639 28.9416V57.0615C93.7639 57.1439 93.7305 57.2203 93.6726 57.2784L65.6554 85.3951C65.5975 85.4562 65.5184 85.4868 65.4392 85.4868ZM65.7436 1.56714V84.4359L93.1461 56.9332V29.0699L65.7436 1.56714Z" fill="white"/>
<path d="M93.3442 29.2501H33.1276C33.0028 29.2501 32.8902 29.1737 32.8446 29.0607C32.7989 28.9477 32.8233 28.8133 32.9115 28.7247L60.8192 0.604829C60.8771 0.546787 60.9562 0.513184 61.0353 0.513184H65.4396C65.5218 0.513184 65.6009 0.546787 65.6557 0.604829L93.5634 28.7247C93.6517 28.8133 93.676 28.9446 93.6304 29.0607C93.5847 29.1768 93.469 29.2501 93.3442 29.2501ZM33.8673 28.633H92.6046L65.3117 1.13026H61.1632L33.8673 28.633Z" fill="white"/>
<path d="M33.1277 85.4868C33.0882 85.4868 33.0486 85.4776 33.009 85.4623C32.8934 85.4135 32.8203 85.3035 32.8203 85.1782V28.9416C32.8203 28.8591 32.8538 28.7828 32.9116 28.7247L60.9259 0.604866C61.0141 0.516275 61.145 0.488782 61.2607 0.537659C61.3763 0.586537 61.4494 0.696511 61.4494 0.82176V57.0615C61.4494 57.1439 61.4159 57.2203 61.3581 57.2784L33.3438 85.3951C33.289 85.4562 33.2099 85.4868 33.1277 85.4868ZM33.4351 29.0699V84.4359L60.8376 56.9332V1.56714L33.4351 29.0699Z" fill="white"/>
<path d="M65.4396 86H38.862C38.5333 86 38.235 85.8014 38.1072 85.499C37.9793 85.1935 38.0463 84.8422 38.2746 84.607L64.6209 57.3669V29.7634H61.9637V57.0615C61.9637 57.2783 61.8785 57.4861 61.7233 57.6419L33.8155 85.7587C33.6634 85.9145 33.4533 86 33.2372 86H28.833C28.6169 86 28.4069 85.9145 28.2547 85.7587L0.240453 57.6419C0.0852237 57.4891 0 57.2783 0 57.0615V28.9416C0 28.7247 0.0852237 28.5139 0.240453 28.3612L28.2547 0.241333C28.4099 0.0855357 28.6169 0 28.833 0H56.0498C56.3816 0 56.6798 0.198565 56.8046 0.507104C56.9294 0.815644 56.8625 1.16695 56.6281 1.40217L29.6518 28.6544V56.2397H32.3089V28.9416C32.3089 28.7247 32.3941 28.517 32.5494 28.3612L60.4571 0.241333C60.6093 0.0855357 60.8193 0 61.0354 0H65.4396C65.6557 0 65.8657 0.0855357 66.0179 0.241333L94.0352 28.3612C94.1904 28.5139 94.2757 28.7247 94.2757 28.9416V57.0615C94.2757 57.2783 94.1904 57.4891 94.0352 57.6419L66.0179 85.7587C65.8627 85.9145 65.6557 86 65.4396 86ZM40.7948 84.3565H65.0987L92.6351 56.7193V29.2807L65.0987 1.64351H61.3732L33.9464 29.2807V57.0615C33.9464 57.5166 33.5812 57.8832 33.1277 57.8832H28.833C28.3795 57.8832 28.0142 57.5166 28.0142 57.0615V28.3154C28.0142 28.0985 28.0995 27.8907 28.2517 27.7349L54.0836 1.64351H29.1739L1.63751 29.2807V56.7193L29.1739 84.3565H32.8994L60.3262 56.7193V28.9416C60.3262 28.4864 60.6914 28.1199 61.145 28.1199H65.4396C65.8931 28.1199 66.2584 28.4864 66.2584 28.9416V57.6999C66.2584 57.9138 66.1762 58.1184 66.027 58.2712L40.7948 84.3565Z" fill="white"/>
</svg>
