<svg width="123" height="98" viewBox="0 0 123 98" fill="none" xmlns="http://www.w3.org/2000/svg">
<path d="M90.2387 35.9653L94.9062 31.2793L90.2387 26.5933L85.5712 31.2793L90.2387 35.9653Z" fill="white"/>
<path d="M90.2387 9.37154L94.9062 4.68555L90.2387 -0.000450345L85.5712 4.68555L90.2387 9.37154Z" fill="white"/>
<path d="M90.2426 67.9907L94.9102 63.3047L90.2426 58.6187L85.5751 63.3047L90.2426 67.9907Z" fill="white"/>
<path d="M118.332 67.9878L123 63.3018L118.332 58.6158L113.665 63.3018L118.332 67.9878Z" fill="white"/>
<path d="M62.0473 35.9663L66.7148 31.2803L62.0473 26.5943L57.3798 31.2803L62.0473 35.9663Z" fill="white"/>
<path d="M62.0512 67.9917L66.7188 63.3057L62.0512 58.6197L57.3837 63.3057L62.0512 67.9917Z" fill="white"/>
<path d="M62.0473 97.0044L66.7148 92.3184L62.0473 87.6324L57.3798 92.3184L62.0473 97.0044Z" fill="white"/>
<path d="M33.8559 67.9878L38.5234 63.3018L33.8559 58.6158L29.1884 63.3018L33.8559 67.9878Z" fill="white"/>
<path d="M33.852 97.0005L38.5195 92.3145L33.852 87.6285L29.1845 92.3145L33.852 97.0005Z" fill="white"/>
<path d="M5.66452 67.9887L10.332 63.3027L5.66452 58.6167L0.997015 63.3027L5.66452 67.9887Z" fill="white"/>
</svg>
