<svg width="264" height="316" viewBox="0 0 264 316" fill="none" xmlns="http://www.w3.org/2000/svg">
<g opacity="0.22">
<path d="M14.4632 6.22163H2.85724C1.28112 6.22163 0 4.93527 0 3.33782C0 1.74878 1.28112 0.454011 2.85724 0.454011H14.4632C16.0478 0.454011 17.3205 1.74038 17.3205 3.33782C17.3289 4.93527 16.0478 6.22163 14.4632 6.22163ZM17.3289 16.6891C17.3289 15.1001 16.0478 13.8053 14.4716 13.8053H2.85724C1.28112 13.8137 0 15.1001 0 16.6891C0 18.2781 1.28112 19.5729 2.85724 19.5729H14.4632C16.0478 19.5729 17.3289 18.2866 17.3289 16.6891ZM17.3289 30.0488C17.3289 28.4598 16.0478 27.165 14.4716 27.165H2.85724C1.28112 27.165 0 28.4514 0 30.0488C0 31.6378 1.28112 32.9326 2.85724 32.9326H14.4632C16.0478 32.9242 17.3289 31.6378 17.3289 30.0488ZM17.3289 43.4001C17.3289 41.8026 16.0478 40.5163 14.4716 40.5163H2.85724C1.28112 40.5163 0 41.8026 0 43.4001C0 44.9891 1.28112 46.2839 2.85724 46.2839H14.4632C16.0478 46.2839 17.3289 44.9891 17.3289 43.4001ZM17.3289 56.7514C17.3289 55.1623 16.0478 53.8676 14.4716 53.8676H2.85724C1.28112 53.8676 0 55.1623 0 56.7514C0 58.3404 1.28112 59.6352 2.85724 59.6352H14.4632C16.0478 59.6352 17.3289 58.3488 17.3289 56.7514ZM17.3289 70.1111C17.3289 68.522 16.0478 67.2272 14.4716 67.2272H2.85724C1.28112 67.2272 0 68.5136 0 70.1111C0 71.7085 1.28112 72.9949 2.85724 72.9949H14.4632C16.0478 72.9949 17.3289 71.7001 17.3289 70.1111ZM17.3289 83.4623C17.3289 81.8649 16.0478 80.5785 14.4716 80.5785H2.85724C1.28112 80.5785 0 81.8733 0 83.4623C0 85.0514 1.28112 86.3461 2.85724 86.3461H14.4632C16.0478 86.3461 17.3289 85.0598 17.3289 83.4623ZM17.3289 96.8136C17.3289 95.2246 16.0478 93.9298 14.4716 93.9298H2.85724C1.2727 93.9298 0 95.2162 0 96.8136C0 98.4027 1.28112 99.6974 2.85724 99.6974H14.4632C16.0478 99.6974 17.3289 98.4111 17.3289 96.8136ZM60.7354 3.33782C60.7354 1.74878 59.4543 0.454011 57.8697 0.454011H27.4177C25.8332 0.454011 24.5521 1.74038 24.5521 3.33782C24.5521 4.93527 25.8332 6.22163 27.4177 6.22163H57.8781C59.4543 6.22163 60.7354 4.93527 60.7354 3.33782ZM60.7354 16.6891C60.7354 15.1001 59.4543 13.8053 57.8697 13.8053H27.4177C25.8332 13.8053 24.5521 15.0917 24.5521 16.6891C24.5521 18.2781 25.8332 19.5729 27.4177 19.5729H57.8781C59.4543 19.5729 60.7354 18.2866 60.7354 16.6891ZM60.7354 30.0488C60.7354 28.4598 59.4543 27.165 57.8697 27.165H27.4177C25.8332 27.165 24.5521 28.4514 24.5521 30.0488C24.5521 31.6378 25.8332 32.9326 27.4177 32.9326H57.8781C59.4543 32.9242 60.7354 31.6378 60.7354 30.0488ZM60.7354 43.4001C60.7354 41.8026 59.4543 40.5163 57.8697 40.5163H27.4177C25.8332 40.5163 24.5521 41.8026 24.5521 43.4001C24.5521 44.9891 25.8332 46.2839 27.4177 46.2839H57.8781C59.4543 46.2839 60.7354 44.9891 60.7354 43.4001ZM60.7354 56.7514C60.7354 55.1623 59.4543 53.8676 57.8697 53.8676H27.4177C25.8332 53.8676 24.5521 55.1539 24.5521 56.7514C24.5521 58.3404 25.8332 59.6352 27.4177 59.6352H57.8781C59.4543 59.6352 60.7354 58.3488 60.7354 56.7514ZM97.2053 70.1111C97.2053 68.522 95.9241 67.2272 94.3396 67.2272H63.8876C62.3031 67.2272 61.0219 68.5136 61.0219 70.1111C61.0219 71.7085 62.3031 72.9949 63.8876 72.9949H94.348C95.9241 72.9949 97.2053 71.7001 97.2053 70.1111ZM97.2053 83.4623C97.2053 81.8649 95.9241 80.5785 94.3396 80.5785H63.8876C62.3031 80.5785 61.0219 81.8649 61.0219 83.4623C61.0219 85.0514 62.3031 86.3461 63.8876 86.3461H94.348C95.9241 86.3461 97.2053 85.0598 97.2053 83.4623ZM97.2053 96.8136C97.2053 95.2246 95.9241 93.9298 94.3396 93.9298H63.8876C62.3031 93.9298 61.0219 95.2162 61.0219 96.8136C61.0219 98.4027 62.3031 99.6974 63.8876 99.6974H94.348C95.9241 99.6974 97.2053 98.4111 97.2053 96.8136ZM74.145 3.33782C74.145 1.49655 72.6532 0 70.8242 0C68.9953 0 67.5118 1.49655 67.5118 3.33782C67.5118 5.17909 68.9953 6.67564 70.8242 6.67564C72.6532 6.67564 74.145 5.17909 74.145 3.33782ZM84.0822 3.33782C84.0822 1.49655 82.5988 0 80.7698 0C78.9408 0 77.4574 1.49655 77.4574 3.33782C77.4574 5.17909 78.9408 6.67564 80.7698 6.67564C82.5988 6.67564 84.0822 5.17909 84.0822 3.33782ZM94.0362 3.33782C94.0362 1.49655 92.5528 0 90.7238 0C88.8948 0 87.4114 1.49655 87.4114 3.33782C87.4114 5.17909 88.8948 6.67564 90.7238 6.67564C92.5528 6.67564 94.0362 5.17909 94.0362 3.33782ZM103.982 3.33782C103.982 1.49655 102.498 0 100.669 0C98.8404 0 97.357 1.49655 97.357 3.33782C97.357 5.17909 98.8404 6.67564 100.669 6.67564C102.498 6.67564 103.982 5.17909 103.982 3.33782ZM113.927 3.33782C113.927 1.49655 112.444 0 110.615 0C108.786 0 107.303 1.49655 107.303 3.33782C107.303 5.17909 108.786 6.67564 110.615 6.67564C112.444 6.67564 113.927 5.17909 113.927 3.33782ZM123.873 3.33782C123.873 1.49655 122.389 0 120.56 0C118.732 0 117.248 1.49655 117.248 3.33782C117.248 5.17909 118.732 6.67564 120.56 6.67564C122.389 6.67564 123.873 5.17909 123.873 3.33782ZM74.145 30.0488C74.145 28.2075 72.6616 26.711 70.8327 26.711C69.0037 26.711 67.5203 28.2075 67.5203 30.0488C67.5203 31.8901 69.0037 33.3866 70.8327 33.3866C72.6616 33.3866 74.145 31.8901 74.145 30.0488ZM84.0822 30.0488C84.0822 28.2075 82.5988 26.711 80.7698 26.711C78.9408 26.711 77.4574 28.2075 77.4574 30.0488C77.4574 31.8901 78.9408 33.3866 80.7698 33.3866C82.5988 33.3866 84.0822 31.8901 84.0822 30.0488ZM94.0362 30.0488C94.0362 28.2075 92.5528 26.711 90.7238 26.711C88.8948 26.711 87.4114 28.2075 87.4114 30.0488C87.4114 31.8901 88.8948 33.3866 90.7238 33.3866C92.5528 33.3866 94.0362 31.8901 94.0362 30.0488ZM103.982 30.0488C103.982 28.2075 102.498 26.711 100.669 26.711C98.8404 26.711 97.357 28.2075 97.357 30.0488C97.357 31.8901 98.8404 33.3866 100.669 33.3866C102.498 33.3866 103.982 31.8901 103.982 30.0488ZM113.927 30.0488C113.927 28.2075 112.444 26.711 110.615 26.711C108.786 26.711 107.303 28.2075 107.303 30.0488C107.303 31.8901 108.786 33.3866 110.615 33.3866C112.444 33.3866 113.927 31.8901 113.927 30.0488ZM123.873 30.0488C123.873 28.2075 122.389 26.711 120.56 26.711C118.732 26.711 117.248 28.2075 117.248 30.0488C117.248 31.8901 118.732 33.3866 120.56 33.3866C122.389 33.3866 123.873 31.8901 123.873 30.0488ZM108.12 68.4379C108.12 66.5967 106.637 65.1001 104.808 65.1001C102.979 65.1001 101.495 66.5967 101.495 68.4379C101.495 70.2792 102.979 71.7758 104.808 71.7758C106.637 71.7758 108.12 70.2792 108.12 68.4379ZM118.066 68.4379C118.066 66.5967 116.582 65.1001 114.753 65.1001C112.924 65.1001 111.441 66.5967 111.441 68.4379C111.441 70.2792 112.924 71.7758 114.753 71.7758C116.582 71.7758 118.066 70.2792 118.066 68.4379ZM128.011 68.4379C128.011 66.5967 126.528 65.1001 124.699 65.1001C122.87 65.1001 121.386 66.5967 121.386 68.4379C121.386 70.2792 122.87 71.7758 124.699 71.7758C126.528 71.7758 128.011 70.2792 128.011 68.4379ZM137.957 68.4379C137.957 66.5967 136.473 65.1001 134.644 65.1001C132.815 65.1001 131.332 66.5967 131.332 68.4379C131.332 70.2792 132.815 71.7758 134.644 71.7758C136.473 71.7758 137.957 70.2792 137.957 68.4379ZM147.902 68.4379C147.902 66.5967 146.419 65.1001 144.59 65.1001C142.761 65.1001 141.278 66.5967 141.278 68.4379C141.278 70.2792 142.761 71.7758 144.59 71.7758C146.419 71.7758 147.902 70.2792 147.902 68.4379ZM157.848 68.4379C157.848 66.5967 156.365 65.1001 154.536 65.1001C152.707 65.1001 151.223 66.5967 151.223 68.4379C151.223 70.2792 152.707 71.7758 154.536 71.7758C156.365 71.7758 157.848 70.2792 157.848 68.4379ZM108.12 95.9813C108.12 94.14 106.637 92.6434 104.808 92.6434C102.979 92.6434 101.495 94.14 101.495 95.9813C101.495 97.8225 102.979 99.3191 104.808 99.3191C106.637 99.3191 108.12 97.8225 108.12 95.9813ZM118.066 95.9813C118.066 94.14 116.582 92.6434 114.753 92.6434C112.924 92.6434 111.441 94.14 111.441 95.9813C111.441 97.8225 112.924 99.3191 114.753 99.3191C116.582 99.3191 118.066 97.8225 118.066 95.9813ZM128.011 95.9813C128.011 94.14 126.528 92.6434 124.699 92.6434C122.87 92.6434 121.386 94.14 121.386 95.9813C121.386 97.8225 122.87 99.3191 124.699 99.3191C126.528 99.3191 128.011 97.8225 128.011 95.9813ZM137.957 95.9813C137.957 94.14 136.473 92.6434 134.644 92.6434C132.815 92.6434 131.332 94.14 131.332 95.9813C131.332 97.8225 132.815 99.3191 134.644 99.3191C136.473 99.3191 137.957 97.8225 137.957 95.9813ZM147.902 95.9813C147.902 94.14 146.419 92.6434 144.59 92.6434C142.761 92.6434 141.278 94.14 141.278 95.9813C141.278 97.8225 142.761 99.3191 144.59 99.3191C146.419 99.3191 147.902 97.8225 147.902 95.9813ZM157.848 95.9813C157.848 94.14 156.365 92.6434 154.536 92.6434C152.707 92.6434 151.223 94.14 151.223 95.9813C151.223 97.8225 152.707 99.3191 154.536 99.3191C156.365 99.3191 157.848 97.8225 157.848 95.9813Z" fill="#606060"/>
<path d="M14.4632 113.082H2.85724C1.2727 113.082 0 111.796 0 110.198C0 108.609 1.28112 107.314 2.85724 107.314H14.4632C16.0478 107.314 17.3205 108.601 17.3205 110.198C17.3289 111.787 16.0478 113.082 14.4632 113.082ZM17.3289 123.549C17.3289 121.96 16.0478 120.666 14.4716 120.666H2.85724C1.2727 120.666 0 121.952 0 123.549C0 125.138 1.28112 126.433 2.85724 126.433H14.4632C16.0478 126.433 17.3289 125.147 17.3289 123.549ZM17.3289 136.901C17.3289 135.312 16.0478 134.017 14.4716 134.017H2.85724C1.2727 134.017 0 135.303 0 136.901C0 138.49 1.28112 139.785 2.85724 139.785H14.4632C16.0478 139.785 17.3289 138.498 17.3289 136.901ZM17.3289 150.26C17.3289 148.671 16.0478 147.377 14.4716 147.377H2.85724C1.2727 147.377 0 148.663 0 150.26C0 151.858 1.28112 153.144 2.85724 153.144H14.4632C16.0478 153.136 17.3289 151.849 17.3289 150.26ZM17.3289 163.612C17.3289 162.023 16.0478 160.728 14.4716 160.728H2.85724C1.2727 160.728 0 162.014 0 163.612C0 165.201 1.28112 166.496 2.85724 166.496H14.4632C16.0478 166.496 17.3289 165.201 17.3289 163.612ZM17.3289 176.971C17.3289 175.382 16.0478 174.088 14.4716 174.088H2.85724C1.2727 174.088 0 175.374 0 176.971C0 178.569 1.28112 179.855 2.85724 179.855H14.4632C16.0478 179.847 17.3289 178.56 17.3289 176.971ZM17.3289 190.323C17.3289 188.725 16.0478 187.439 14.4716 187.439H2.85724C1.2727 187.439 0 188.725 0 190.323C0 191.912 1.28112 193.207 2.85724 193.207H14.4632C16.0478 193.207 17.3289 191.912 17.3289 190.323ZM17.3289 203.674C17.3289 202.085 16.0478 200.79 14.4716 200.79H2.85724C1.2727 200.79 0 202.077 0 203.674C0 205.263 1.28112 206.558 2.85724 206.558H14.4632C16.0478 206.558 17.3289 205.271 17.3289 203.674ZM60.7354 110.198C60.7354 108.609 59.4543 107.314 57.8697 107.314H27.4177C25.8332 107.314 24.5521 108.601 24.5521 110.198C24.5521 111.787 25.8332 113.082 27.4177 113.082H57.8781C59.4543 113.082 60.7354 111.787 60.7354 110.198ZM60.7354 123.549C60.7354 121.96 59.4543 120.666 57.8697 120.666H27.4177C25.8332 120.666 24.5521 121.952 24.5521 123.549C24.5521 125.138 25.8332 126.433 27.4177 126.433H57.8781C59.4543 126.433 60.7354 125.147 60.7354 123.549ZM60.7354 136.901C60.7354 135.312 59.4543 134.017 57.8697 134.017H27.4177C25.8332 134.017 24.5521 135.303 24.5521 136.901C24.5521 138.49 25.8332 139.785 27.4177 139.785H57.8781C59.4543 139.785 60.7354 138.498 60.7354 136.901ZM60.7354 150.26C60.7354 148.671 59.4543 147.377 57.8697 147.377H27.4177C25.8332 147.377 24.5521 148.663 24.5521 150.26C24.5521 151.858 25.8332 153.144 27.4177 153.144H57.8781C59.4543 153.136 60.7354 151.849 60.7354 150.26ZM60.7354 163.612C60.7354 162.023 59.4543 160.728 57.8697 160.728H27.4177C25.8332 160.728 24.5521 162.014 24.5521 163.612C24.5521 165.201 25.8332 166.496 27.4177 166.496H57.8781C59.4543 166.496 60.7354 165.201 60.7354 163.612ZM97.2053 176.971C97.2053 175.382 95.9241 174.088 94.3396 174.088H63.8876C62.3031 174.088 61.0219 175.374 61.0219 176.971C61.0219 178.569 62.3031 179.855 63.8876 179.855H94.348C95.9241 179.847 97.2053 178.56 97.2053 176.971ZM97.2053 190.323C97.2053 188.725 95.9241 187.439 94.3396 187.439H63.8876C62.3031 187.439 61.0219 188.725 61.0219 190.323C61.0219 191.912 62.3031 193.207 63.8876 193.207H94.348C95.9241 193.207 97.2053 191.912 97.2053 190.323ZM97.2053 203.674C97.2053 202.085 95.9241 200.79 94.3396 200.79H63.8876C62.3031 200.79 61.0219 202.077 61.0219 203.674C61.0219 205.263 62.3031 206.558 63.8876 206.558H94.348C95.9241 206.558 97.2053 205.271 97.2053 203.674ZM74.145 110.198C74.145 108.357 72.6616 106.86 70.8327 106.86C69.0037 106.86 67.5203 108.357 67.5203 110.198C67.5203 112.039 69.0037 113.536 70.8327 113.536C72.6616 113.536 74.145 112.039 74.145 110.198ZM84.0822 110.198C84.0822 108.357 82.5988 106.86 80.7698 106.86C78.9408 106.86 77.4574 108.357 77.4574 110.198C77.4574 112.039 78.9408 113.536 80.7698 113.536C82.5988 113.536 84.0822 112.039 84.0822 110.198ZM94.0362 110.198C94.0362 108.357 92.5528 106.86 90.7238 106.86C88.8948 106.86 87.4114 108.357 87.4114 110.198C87.4114 112.039 88.8948 113.536 90.7238 113.536C92.5528 113.536 94.0362 112.039 94.0362 110.198ZM103.982 110.198C103.982 108.357 102.498 106.86 100.669 106.86C98.8404 106.86 97.357 108.357 97.357 110.198C97.357 112.039 98.8404 113.536 100.669 113.536C102.498 113.536 103.982 112.039 103.982 110.198ZM113.927 110.198C113.927 108.357 112.444 106.86 110.615 106.86C108.786 106.86 107.303 108.357 107.303 110.198C107.303 112.039 108.786 113.536 110.615 113.536C112.444 113.536 113.927 112.039 113.927 110.198ZM123.873 110.198C123.873 108.357 122.389 106.86 120.56 106.86C118.732 106.86 117.248 108.357 117.248 110.198C117.248 112.039 118.732 113.536 120.56 113.536C122.389 113.536 123.873 112.039 123.873 110.198ZM74.145 136.909C74.145 135.068 72.6616 133.571 70.8327 133.571C69.0037 133.571 67.5203 135.068 67.5203 136.909C67.5203 138.75 69.0037 140.247 70.8327 140.247C72.6616 140.247 74.145 138.75 74.145 136.909ZM84.0822 136.909C84.0822 135.068 82.5988 133.571 80.7698 133.571C78.9408 133.571 77.4574 135.068 77.4574 136.909C77.4574 138.75 78.9408 140.247 80.7698 140.247C82.5988 140.247 84.0822 138.75 84.0822 136.909ZM94.0362 136.909C94.0362 135.068 92.5528 133.571 90.7238 133.571C88.8948 133.571 87.4114 135.068 87.4114 136.909C87.4114 138.75 88.8948 140.247 90.7238 140.247C92.5528 140.247 94.0362 138.75 94.0362 136.909ZM103.982 136.909C103.982 135.068 102.498 133.571 100.669 133.571C98.8404 133.571 97.357 135.068 97.357 136.909C97.357 138.75 98.8404 140.247 100.669 140.247C102.498 140.247 103.982 138.75 103.982 136.909ZM113.927 136.909C113.927 135.068 112.444 133.571 110.615 133.571C108.786 133.571 107.303 135.068 107.303 136.909C107.303 138.75 108.786 140.247 110.615 140.247C112.444 140.247 113.927 138.75 113.927 136.909ZM123.873 136.909C123.873 135.068 122.389 133.571 120.56 133.571C118.732 133.571 117.248 135.068 117.248 136.909C117.248 138.75 118.732 140.247 120.56 140.247C122.389 140.247 123.873 138.75 123.873 136.909ZM108.12 175.298C108.12 173.457 106.637 171.96 104.808 171.96C102.979 171.96 101.495 173.457 101.495 175.298C101.495 177.14 102.979 178.636 104.808 178.636C106.637 178.636 108.12 177.14 108.12 175.298ZM118.066 175.298C118.066 173.457 116.582 171.96 114.753 171.96C112.924 171.96 111.441 173.457 111.441 175.298C111.441 177.14 112.924 178.636 114.753 178.636C116.582 178.636 118.066 177.14 118.066 175.298ZM128.011 175.298C128.011 173.457 126.528 171.96 124.699 171.96C122.87 171.96 121.386 173.457 121.386 175.298C121.386 177.14 122.87 178.636 124.699 178.636C126.528 178.636 128.011 177.14 128.011 175.298ZM137.957 175.298C137.957 173.457 136.473 171.96 134.644 171.96C132.815 171.96 131.332 173.457 131.332 175.298C131.332 177.14 132.815 178.636 134.644 178.636C136.473 178.636 137.957 177.14 137.957 175.298ZM147.902 175.298C147.902 173.457 146.419 171.96 144.59 171.96C142.761 171.96 141.278 173.457 141.278 175.298C141.278 177.14 142.761 178.636 144.59 178.636C146.419 178.636 147.902 177.14 147.902 175.298ZM157.848 175.298C157.848 173.457 156.365 171.96 154.536 171.96C152.707 171.96 151.223 173.457 151.223 175.298C151.223 177.14 152.707 178.636 154.536 178.636C156.365 178.636 157.848 177.14 157.848 175.298ZM108.12 202.842C108.12 201 106.637 199.504 104.808 199.504C102.979 199.504 101.495 201 101.495 202.842C101.495 204.683 102.979 206.179 104.808 206.179C106.637 206.179 108.12 204.683 108.12 202.842ZM118.066 202.842C118.066 201 116.582 199.504 114.753 199.504C112.924 199.504 111.441 201 111.441 202.842C111.441 204.683 112.924 206.179 114.753 206.179C116.582 206.179 118.066 204.683 118.066 202.842ZM128.011 202.842C128.011 201 126.528 199.504 124.699 199.504C122.87 199.504 121.386 201 121.386 202.842C121.386 204.683 122.87 206.179 124.699 206.179C126.528 206.179 128.011 204.683 128.011 202.842ZM137.957 202.842C137.957 201 136.473 199.504 134.644 199.504C132.815 199.504 131.332 201 131.332 202.842C131.332 204.683 132.815 206.179 134.644 206.179C136.473 206.179 137.957 204.683 137.957 202.842ZM147.902 202.842C147.902 201 146.419 199.504 144.59 199.504C142.761 199.504 141.278 201 141.278 202.842C141.278 204.683 142.761 206.179 144.59 206.179C146.419 206.179 147.902 204.683 147.902 202.842ZM157.848 202.842C157.848 201 156.365 199.504 154.536 199.504C152.707 199.504 151.223 201 151.223 202.842C151.223 204.683 152.707 206.179 154.536 206.179C156.365 206.179 157.848 204.683 157.848 202.842Z" fill="#606060"/>
<path d="M14.4632 222.516H2.85724C1.2727 222.516 0 221.23 0 219.632C0 218.043 1.28112 216.748 2.85724 216.748H14.4632C16.0478 216.748 17.3205 218.035 17.3205 219.632C17.3289 221.23 16.0478 222.516 14.4632 222.516ZM17.3289 232.992C17.3289 231.403 16.0478 230.108 14.4716 230.108H2.85724C1.2727 230.108 0 231.394 0 232.992C0 234.581 1.28112 235.876 2.85724 235.876H14.4632C16.0478 235.876 17.3289 234.581 17.3289 232.992ZM17.3289 246.343C17.3289 244.754 16.0478 243.459 14.4716 243.459H2.85724C1.28112 243.459 0 244.754 0 246.343C0 247.932 1.28112 249.227 2.85724 249.227H14.4632C16.0478 249.227 17.3289 247.941 17.3289 246.343ZM17.3289 259.694C17.3289 258.097 16.0478 256.811 14.4716 256.811H2.85724C1.2727 256.811 0 258.097 0 259.694C0 261.283 1.28112 262.578 2.85724 262.578H14.4632C16.0478 262.578 17.3289 261.292 17.3289 259.694ZM17.3289 273.054C17.3289 271.465 16.0478 270.17 14.4716 270.17H2.85724C1.2727 270.17 0 271.457 0 273.054C0 274.643 1.28112 275.938 2.85724 275.938H14.4632C16.0478 275.93 17.3289 274.643 17.3289 273.054ZM17.3289 286.405C17.3289 284.808 16.0478 283.522 14.4716 283.522H2.85724C1.2727 283.522 0 284.808 0 286.405C0 287.994 1.28112 289.289 2.85724 289.289H14.4632C16.0478 289.289 17.3289 288.003 17.3289 286.405ZM17.3289 299.765C17.3289 298.176 16.0478 296.881 14.4716 296.881H2.85724C1.2727 296.881 0 298.168 0 299.765C0 301.354 1.28112 302.649 2.85724 302.649H14.4632C16.0478 302.64 17.3289 301.354 17.3289 299.765ZM17.3289 313.116C17.3289 311.527 16.0478 310.233 14.4716 310.233H2.85724C1.2727 310.233 0 311.519 0 313.116C0 314.705 1.28112 316 2.85724 316H14.4632C16.0478 316 17.3289 314.705 17.3289 313.116ZM60.7354 219.641C60.7354 218.052 59.4543 216.757 57.8697 216.757H27.4177C25.8332 216.757 24.5521 218.043 24.5521 219.641C24.5521 221.23 25.8332 222.524 27.4177 222.524H57.8781C59.4543 222.516 60.7354 221.23 60.7354 219.641ZM60.7354 232.992C60.7354 231.403 59.4543 230.108 57.8697 230.108H27.4177C25.8332 230.108 24.5521 231.394 24.5521 232.992C24.5521 234.581 25.8332 235.876 27.4177 235.876H57.8781C59.4543 235.876 60.7354 234.581 60.7354 232.992ZM60.7354 246.343C60.7354 244.754 59.4543 243.459 57.8697 243.459H27.4177C25.8332 243.459 24.5521 244.746 24.5521 246.343C24.5521 247.941 25.8332 249.227 27.4177 249.227H57.8781C59.4543 249.227 60.7354 247.941 60.7354 246.343ZM60.7354 259.694C60.7354 258.097 59.4543 256.811 57.8697 256.811H27.4177C25.8332 256.811 24.5521 258.097 24.5521 259.694C24.5521 261.283 25.8332 262.578 27.4177 262.578H57.8781C59.4543 262.578 60.7354 261.292 60.7354 259.694ZM60.7354 273.054C60.7354 271.465 59.4543 270.17 57.8697 270.17H27.4177C25.8332 270.17 24.5521 271.457 24.5521 273.054C24.5521 274.643 25.8332 275.938 27.4177 275.938H57.8781C59.4543 275.93 60.7354 274.643 60.7354 273.054ZM97.2053 286.405C97.2053 284.808 95.9241 283.522 94.3396 283.522H63.8876C62.3031 283.522 61.0219 284.808 61.0219 286.405C61.0219 287.994 62.3031 289.289 63.8876 289.289H94.348C95.9241 289.289 97.2053 288.003 97.2053 286.405ZM97.2053 299.765C97.2053 298.176 95.9241 296.881 94.3396 296.881H63.8876C62.3031 296.881 61.0219 298.168 61.0219 299.765C61.0219 301.354 62.3031 302.649 63.8876 302.649H94.348C95.9241 302.64 97.2053 301.354 97.2053 299.765ZM97.2053 313.116C97.2053 311.527 95.9241 310.233 94.3396 310.233H63.8876C62.3031 310.233 61.0219 311.519 61.0219 313.116C61.0219 314.705 62.3031 316 63.8876 316H94.348C95.9241 316 97.2053 314.705 97.2053 313.116ZM74.145 219.641C74.145 217.799 72.6616 216.303 70.8327 216.303C69.0037 216.303 67.5203 217.799 67.5203 219.641C67.5203 221.482 69.0037 222.978 70.8327 222.978C72.6616 222.978 74.145 221.482 74.145 219.641ZM84.0822 219.641C84.0822 217.799 82.5988 216.303 80.7698 216.303C78.9408 216.303 77.4574 217.799 77.4574 219.641C77.4574 221.482 78.9408 222.978 80.7698 222.978C82.5988 222.978 84.0822 221.482 84.0822 219.641ZM94.0362 219.641C94.0362 217.799 92.5528 216.303 90.7238 216.303C88.8948 216.303 87.4114 217.799 87.4114 219.641C87.4114 221.482 88.8948 222.978 90.7238 222.978C92.5528 222.978 94.0362 221.482 94.0362 219.641ZM103.982 219.641C103.982 217.799 102.498 216.303 100.669 216.303C98.8404 216.303 97.357 217.799 97.357 219.641C97.357 221.482 98.8404 222.978 100.669 222.978C102.498 222.978 103.982 221.482 103.982 219.641ZM113.927 219.641C113.927 217.799 112.444 216.303 110.615 216.303C108.786 216.303 107.303 217.799 107.303 219.641C107.303 221.482 108.786 222.978 110.615 222.978C112.444 222.978 113.927 221.482 113.927 219.641ZM123.873 219.641C123.873 217.799 122.389 216.303 120.56 216.303C118.732 216.303 117.248 217.799 117.248 219.641C117.248 221.482 118.732 222.978 120.56 222.978C122.389 222.978 123.873 221.482 123.873 219.641ZM74.145 246.343C74.145 244.502 72.6616 243.005 70.8327 243.005C69.0037 243.005 67.5203 244.502 67.5203 246.343C67.5203 248.184 69.0037 249.681 70.8327 249.681C72.6616 249.681 74.145 248.193 74.145 246.343ZM84.0822 246.343C84.0822 244.502 82.5988 243.005 80.7698 243.005C78.9408 243.005 77.4574 244.502 77.4574 246.343C77.4574 248.184 78.9408 249.681 80.7698 249.681C82.5988 249.681 84.0822 248.193 84.0822 246.343ZM94.0362 246.343C94.0362 244.502 92.5528 243.005 90.7238 243.005C88.8948 243.005 87.4114 244.502 87.4114 246.343C87.4114 248.184 88.8948 249.681 90.7238 249.681C92.5528 249.681 94.0362 248.193 94.0362 246.343ZM103.982 246.343C103.982 244.502 102.498 243.005 100.669 243.005C98.8404 243.005 97.357 244.502 97.357 246.343C97.357 248.184 98.8404 249.681 100.669 249.681C102.498 249.681 103.982 248.193 103.982 246.343ZM113.927 246.343C113.927 244.502 112.444 243.005 110.615 243.005C108.786 243.005 107.303 244.502 107.303 246.343C107.303 248.184 108.786 249.681 110.615 249.681C112.444 249.681 113.927 248.193 113.927 246.343ZM123.873 246.343C123.873 244.502 122.389 243.005 120.56 243.005C118.732 243.005 117.248 244.502 117.248 246.343C117.248 248.184 118.732 249.681 120.56 249.681C122.389 249.681 123.873 248.193 123.873 246.343ZM108.12 284.741C108.12 282.899 106.637 281.403 104.808 281.403C102.979 281.403 101.495 282.899 101.495 284.741C101.495 286.582 102.979 288.079 104.808 288.079C106.637 288.079 108.12 286.582 108.12 284.741ZM118.066 284.741C118.066 282.899 116.582 281.403 114.753 281.403C112.924 281.403 111.441 282.899 111.441 284.741C111.441 286.582 112.924 288.079 114.753 288.079C116.582 288.079 118.066 286.582 118.066 284.741ZM128.011 284.741C128.011 282.899 126.528 281.403 124.699 281.403C122.87 281.403 121.386 282.899 121.386 284.741C121.386 286.582 122.87 288.079 124.699 288.079C126.528 288.079 128.011 286.582 128.011 284.741ZM137.957 284.741C137.957 282.899 136.473 281.403 134.644 281.403C132.815 281.403 131.332 282.899 131.332 284.741C131.332 286.582 132.815 288.079 134.644 288.079C136.473 288.079 137.957 286.582 137.957 284.741ZM147.902 284.741C147.902 282.899 146.419 281.403 144.59 281.403C142.761 281.403 141.278 282.899 141.278 284.741C141.278 286.582 142.761 288.079 144.59 288.079C146.419 288.079 147.902 286.582 147.902 284.741ZM157.848 284.741C157.848 282.899 156.365 281.403 154.536 281.403C152.707 281.403 151.223 282.899 151.223 284.741C151.223 286.582 152.707 288.079 154.536 288.079C156.365 288.079 157.848 286.582 157.848 284.741ZM108.12 312.276C108.12 310.434 106.637 308.938 104.808 308.938C102.979 308.938 101.495 310.434 101.495 312.276C101.495 314.117 102.979 315.613 104.808 315.613C106.637 315.622 108.12 314.125 108.12 312.276ZM118.066 312.276C118.066 310.434 116.582 308.938 114.753 308.938C112.924 308.938 111.441 310.434 111.441 312.276C111.441 314.117 112.924 315.613 114.753 315.613C116.582 315.622 118.066 314.125 118.066 312.276ZM128.011 312.276C128.011 310.434 126.528 308.938 124.699 308.938C122.87 308.938 121.386 310.434 121.386 312.276C121.386 314.117 122.87 315.613 124.699 315.613C126.528 315.622 128.011 314.125 128.011 312.276ZM137.957 312.276C137.957 310.434 136.473 308.938 134.644 308.938C132.815 308.938 131.332 310.434 131.332 312.276C131.332 314.117 132.815 315.613 134.644 315.613C136.473 315.622 137.957 314.125 137.957 312.276ZM147.902 312.276C147.902 310.434 146.419 308.938 144.59 308.938C142.761 308.938 141.278 310.434 141.278 312.276C141.278 314.117 142.761 315.613 144.59 315.613C146.419 315.622 147.902 314.125 147.902 312.276ZM157.848 312.276C157.848 310.434 156.365 308.938 154.536 308.938C152.707 308.938 151.223 310.434 151.223 312.276C151.223 314.117 152.707 315.613 154.536 315.613C156.365 315.622 157.848 314.125 157.848 312.276Z" fill="#606060"/>
<path d="M192.615 6.22163H181.009C179.425 6.22163 178.152 4.93527 178.152 3.33782C178.152 1.74878 179.433 0.454011 181.009 0.454011H192.615C194.2 0.454011 195.481 1.74038 195.481 3.33782C195.472 4.93527 194.2 6.22163 192.615 6.22163ZM195.472 16.6891C195.472 15.1001 194.191 13.8053 192.607 13.8053H181.001C179.416 13.8053 178.144 15.0917 178.144 16.6891C178.144 18.2781 179.425 19.5729 181.001 19.5729H192.607C194.2 19.5729 195.472 18.2866 195.472 16.6891ZM195.472 30.0488C195.472 28.4598 194.191 27.165 192.607 27.165H181.001C179.416 27.165 178.144 28.4514 178.144 30.0488C178.144 31.6378 179.425 32.9326 181.001 32.9326H192.607C194.2 32.9242 195.472 31.6378 195.472 30.0488ZM195.472 43.4001C195.472 41.8026 194.191 40.5163 192.607 40.5163H181.001C179.416 40.5163 178.144 41.8026 178.144 43.4001C178.144 44.9891 179.425 46.2839 181.001 46.2839H192.607C194.2 46.2839 195.472 44.9891 195.472 43.4001ZM195.472 56.7514C195.472 55.1623 194.191 53.8676 192.607 53.8676H181.001C179.416 53.8676 178.144 55.1539 178.144 56.7514C178.144 58.3404 179.425 59.6352 181.001 59.6352H192.607C194.2 59.6352 195.472 58.3488 195.472 56.7514ZM195.472 70.1111C195.472 68.522 194.191 67.2272 192.607 67.2272H181.001C179.416 67.2272 178.144 68.5136 178.144 70.1111C178.144 71.7085 179.425 72.9949 181.001 72.9949H192.607C194.2 72.9949 195.472 71.7001 195.472 70.1111ZM195.472 83.4623C195.472 81.8649 194.191 80.5785 192.607 80.5785H181.001C179.416 80.5785 178.144 81.8649 178.144 83.4623C178.144 85.0514 179.425 86.3461 181.001 86.3461H192.607C194.2 86.3461 195.472 85.0598 195.472 83.4623ZM195.472 96.8136C195.472 95.2246 194.191 93.9298 192.607 93.9298H181.001C179.416 93.9298 178.144 95.2162 178.144 96.8136C178.144 98.4027 179.425 99.6974 181.001 99.6974H192.607C194.2 99.6974 195.472 98.4111 195.472 96.8136ZM238.887 3.33782C238.887 1.74878 237.606 0.454011 236.022 0.454011H205.561C203.977 0.454011 202.696 1.74038 202.696 3.33782C202.696 4.93527 203.977 6.22163 205.561 6.22163H236.022C237.606 6.22163 238.887 4.93527 238.887 3.33782ZM238.887 16.6891C238.887 15.1001 237.606 13.8053 236.022 13.8053H205.561C203.977 13.8053 202.696 15.0917 202.696 16.6891C202.696 18.2781 203.977 19.5729 205.561 19.5729H236.022C237.606 19.5729 238.887 18.2866 238.887 16.6891ZM238.887 30.0488C238.887 28.4598 237.606 27.165 236.022 27.165H205.561C203.977 27.165 202.696 28.4514 202.696 30.0488C202.696 31.6378 203.977 32.9326 205.561 32.9326H236.022C237.606 32.9242 238.887 31.6378 238.887 30.0488ZM238.887 43.4001C238.887 41.8026 237.606 40.5163 236.022 40.5163H205.561C203.977 40.5163 202.696 41.8026 202.696 43.4001C202.696 44.9891 203.977 46.2839 205.561 46.2839H236.022C237.606 46.2839 238.887 44.9891 238.887 43.4001ZM238.887 56.7514C238.887 55.1623 237.606 53.8676 236.022 53.8676H205.561C203.977 53.8676 202.696 55.1539 202.696 56.7514C202.696 58.3404 203.977 59.6352 205.561 59.6352H236.022C237.606 59.6352 238.887 58.3488 238.887 56.7514ZM275.357 70.1111C275.357 68.522 274.076 67.2272 272.492 67.2272H242.031C240.447 67.2272 239.166 68.5136 239.166 70.1111C239.166 71.7085 240.447 72.9949 242.031 72.9949H272.492C274.076 72.9949 275.357 71.7001 275.357 70.1111ZM275.357 83.4623C275.357 81.8649 274.076 80.5785 272.492 80.5785H242.031C240.447 80.5785 239.166 81.8649 239.166 83.4623C239.166 85.0514 240.447 86.3461 242.031 86.3461H272.492C274.076 86.3461 275.357 85.0598 275.357 83.4623ZM275.357 96.8136C275.357 95.2246 274.076 93.9298 272.492 93.9298H242.031C240.447 93.9298 239.166 95.2162 239.166 96.8136C239.166 98.4027 240.447 99.6974 242.031 99.6974H272.492C274.076 99.6974 275.357 98.4111 275.357 96.8136ZM252.289 3.33782C252.289 1.49655 250.805 0 248.976 0C247.147 0 245.664 1.49655 245.664 3.33782C245.664 5.17909 247.147 6.67564 248.976 6.67564C250.805 6.67564 252.289 5.17909 252.289 3.33782ZM262.234 3.33782C262.234 1.49655 260.751 0 258.922 0C257.093 0 255.609 1.49655 255.609 3.33782C255.609 5.17909 257.093 6.67564 258.922 6.67564C260.751 6.67564 262.234 5.17909 262.234 3.33782ZM272.18 3.33782C272.18 1.49655 270.696 0 268.867 0C267.038 0 265.555 1.49655 265.555 3.33782C265.555 5.17909 267.038 6.67564 268.867 6.67564C270.696 6.67564 272.18 5.17909 272.18 3.33782ZM282.125 3.33782C282.125 1.49655 280.642 0 278.813 0C276.984 0 275.501 1.49655 275.501 3.33782C275.501 5.17909 276.984 6.67564 278.813 6.67564C280.642 6.67564 282.125 5.17909 282.125 3.33782ZM292.071 3.33782C292.071 1.49655 290.587 0 288.758 0C286.93 0 285.446 1.49655 285.446 3.33782C285.446 5.17909 286.93 6.67564 288.758 6.67564C290.587 6.67564 292.071 5.17909 292.071 3.33782ZM302.016 3.33782C302.016 1.49655 300.533 0 298.704 0C296.875 0 295.392 1.49655 295.392 3.33782C295.392 5.17909 296.875 6.67564 298.704 6.67564C300.533 6.67564 302.016 5.17909 302.016 3.33782ZM252.289 30.0488C252.289 28.2075 250.805 26.711 248.976 26.711C247.147 26.711 245.664 28.2075 245.664 30.0488C245.664 31.8901 247.147 33.3866 248.976 33.3866C250.805 33.3866 252.289 31.8901 252.289 30.0488ZM262.234 30.0488C262.234 28.2075 260.751 26.711 258.922 26.711C257.093 26.711 255.609 28.2075 255.609 30.0488C255.609 31.8901 257.093 33.3866 258.922 33.3866C260.751 33.3866 262.234 31.8901 262.234 30.0488ZM272.18 30.0488C272.18 28.2075 270.696 26.711 268.867 26.711C267.038 26.711 265.555 28.2075 265.555 30.0488C265.555 31.8901 267.038 33.3866 268.867 33.3866C270.696 33.3866 272.18 31.8901 272.18 30.0488ZM282.125 30.0488C282.125 28.2075 280.642 26.711 278.813 26.711C276.984 26.711 275.501 28.2075 275.501 30.0488C275.501 31.8901 276.984 33.3866 278.813 33.3866C280.642 33.3866 282.125 31.8901 282.125 30.0488ZM292.071 30.0488C292.071 28.2075 290.587 26.711 288.758 26.711C286.93 26.711 285.446 28.2075 285.446 30.0488C285.446 31.8901 286.93 33.3866 288.758 33.3866C290.587 33.3866 292.071 31.8901 292.071 30.0488ZM302.016 30.0488C302.016 28.2075 300.533 26.711 298.704 26.711C296.875 26.711 295.392 28.2075 295.392 30.0488C295.392 31.8901 296.875 33.3866 298.704 33.3866C300.533 33.3866 302.016 31.8901 302.016 30.0488ZM286.272 68.4379C286.272 66.5967 284.789 65.1001 282.96 65.1001C281.131 65.1001 279.647 66.5967 279.647 68.4379C279.647 70.2792 281.131 71.7758 282.96 71.7758C284.789 71.7758 286.272 70.2792 286.272 68.4379ZM296.218 68.4379C296.218 66.5967 294.734 65.1001 292.905 65.1001C291.076 65.1001 289.593 66.5967 289.593 68.4379C289.593 70.2792 291.076 71.7758 292.905 71.7758C294.734 71.7758 296.218 70.2792 296.218 68.4379ZM306.163 68.4379C306.163 66.5967 304.68 65.1001 302.851 65.1001C301.022 65.1001 299.538 66.5967 299.538 68.4379C299.538 70.2792 301.022 71.7758 302.851 71.7758C304.68 71.7758 306.163 70.2792 306.163 68.4379ZM316.109 68.4379C316.109 66.5967 314.625 65.1001 312.796 65.1001C310.967 65.1001 309.484 66.5967 309.484 68.4379C309.484 70.2792 310.967 71.7758 312.796 71.7758C314.625 71.7758 316.109 70.2792 316.109 68.4379ZM326.054 68.4379C326.054 66.5967 324.571 65.1001 322.742 65.1001C320.913 65.1001 319.43 66.5967 319.43 68.4379C319.43 70.2792 320.913 71.7758 322.742 71.7758C324.571 71.7758 326.054 70.2792 326.054 68.4379ZM336 68.4379C336 66.5967 334.517 65.1001 332.688 65.1001C330.859 65.1001 329.375 66.5967 329.375 68.4379C329.375 70.2792 330.859 71.7758 332.688 71.7758C334.517 71.7758 336 70.2792 336 68.4379ZM286.272 95.9813C286.272 94.14 284.789 92.6434 282.96 92.6434C281.131 92.6434 279.647 94.14 279.647 95.9813C279.647 97.8225 281.131 99.3191 282.96 99.3191C284.789 99.3191 286.272 97.8225 286.272 95.9813ZM296.218 95.9813C296.218 94.14 294.734 92.6434 292.905 92.6434C291.076 92.6434 289.593 94.14 289.593 95.9813C289.593 97.8225 291.076 99.3191 292.905 99.3191C294.734 99.3191 296.218 97.8225 296.218 95.9813ZM306.163 95.9813C306.163 94.14 304.68 92.6434 302.851 92.6434C301.022 92.6434 299.538 94.14 299.538 95.9813C299.538 97.8225 301.022 99.3191 302.851 99.3191C304.68 99.3191 306.163 97.8225 306.163 95.9813ZM316.109 95.9813C316.109 94.14 314.625 92.6434 312.796 92.6434C310.967 92.6434 309.484 94.14 309.484 95.9813C309.484 97.8225 310.967 99.3191 312.796 99.3191C314.625 99.3191 316.109 97.8225 316.109 95.9813ZM326.054 95.9813C326.054 94.14 324.571 92.6434 322.742 92.6434C320.913 92.6434 319.43 94.14 319.43 95.9813C319.43 97.8225 320.913 99.3191 322.742 99.3191C324.571 99.3191 326.054 97.8225 326.054 95.9813ZM336 95.9813C336 94.14 334.517 92.6434 332.688 92.6434C330.859 92.6434 329.375 94.14 329.375 95.9813C329.375 97.8225 330.859 99.3191 332.688 99.3191C334.517 99.3191 336 97.8225 336 95.9813Z" fill="#606060"/>
<path d="M192.615 115.663H181.009C179.425 115.663 178.152 114.377 178.152 112.779C178.152 111.182 179.433 109.895 181.009 109.895H192.615C194.2 109.895 195.481 111.182 195.481 112.779C195.472 114.368 194.2 115.663 192.615 115.663ZM195.472 126.131C195.472 124.541 194.191 123.247 192.607 123.247H181.001C179.416 123.247 178.144 124.533 178.144 126.131C178.144 127.72 179.425 129.014 181.001 129.014H192.607C194.2 129.014 195.472 127.728 195.472 126.131ZM195.472 139.482C195.472 137.893 194.191 136.598 192.607 136.598H181.001C179.416 136.598 178.144 137.884 178.144 139.482C178.144 141.071 179.425 142.366 181.001 142.366H192.607C194.2 142.366 195.472 141.079 195.472 139.482ZM195.472 152.841C195.472 151.244 194.191 149.958 192.607 149.958H181.001C179.416 149.958 178.144 151.244 178.144 152.841C178.144 154.431 179.425 155.725 181.001 155.725H192.607C194.2 155.717 195.472 154.431 195.472 152.841ZM195.472 166.193C195.472 164.604 194.191 163.309 192.607 163.309H181.001C179.416 163.309 178.144 164.595 178.144 166.193C178.144 167.79 179.425 169.077 181.001 169.077H192.607C194.2 169.077 195.472 167.782 195.472 166.193ZM195.472 179.544C195.472 177.947 194.191 176.66 192.607 176.66H181.001C179.416 176.66 178.144 177.947 178.144 179.544C178.144 181.133 179.425 182.428 181.001 182.428H192.607C194.2 182.428 195.472 181.142 195.472 179.544ZM195.472 192.904C195.472 191.315 194.191 190.02 192.607 190.02H181.001C179.416 190.02 178.144 191.306 178.144 192.904C178.144 194.493 179.425 195.788 181.001 195.788H192.607C194.2 195.779 195.472 194.493 195.472 192.904ZM195.472 206.255C195.472 204.666 194.191 203.371 192.607 203.371H181.001C179.416 203.371 178.144 204.658 178.144 206.255C178.144 207.844 179.425 209.139 181.001 209.139H192.607C194.2 209.139 195.472 207.844 195.472 206.255ZM238.887 112.779C238.887 111.182 237.606 109.895 236.022 109.895H205.561C203.977 109.895 202.696 111.182 202.696 112.779C202.696 114.368 203.977 115.663 205.561 115.663H236.022C237.606 115.663 238.887 114.368 238.887 112.779ZM238.887 126.131C238.887 124.541 237.606 123.247 236.022 123.247H205.561C203.977 123.247 202.696 124.533 202.696 126.131C202.696 127.72 203.977 129.014 205.561 129.014H236.022C237.606 129.014 238.887 127.728 238.887 126.131ZM238.887 139.482C238.887 137.893 237.606 136.598 236.022 136.598H205.561C203.977 136.598 202.696 137.884 202.696 139.482C202.696 141.071 203.977 142.366 205.561 142.366H236.022C237.606 142.366 238.887 141.079 238.887 139.482ZM238.887 152.841C238.887 151.244 237.606 149.958 236.022 149.958H205.561C203.977 149.958 202.696 151.244 202.696 152.841C202.696 154.431 203.977 155.725 205.561 155.725H236.022C237.606 155.717 238.887 154.431 238.887 152.841ZM238.887 166.193C238.887 164.604 237.606 163.309 236.022 163.309H205.561C203.977 163.309 202.696 164.595 202.696 166.193C202.696 167.79 203.977 169.077 205.561 169.077H236.022C237.606 169.077 238.887 167.782 238.887 166.193ZM275.357 179.544C275.357 177.947 274.076 176.66 272.492 176.66H242.031C240.447 176.66 239.166 177.947 239.166 179.544C239.166 181.133 240.447 182.428 242.031 182.428H272.492C274.076 182.428 275.357 181.142 275.357 179.544ZM275.357 192.904C275.357 191.315 274.076 190.02 272.492 190.02H242.031C240.447 190.02 239.166 191.306 239.166 192.904C239.166 194.493 240.447 195.788 242.031 195.788H272.492C274.076 195.779 275.357 194.493 275.357 192.904ZM275.357 206.255C275.357 204.666 274.076 203.371 272.492 203.371H242.031C240.447 203.371 239.166 204.658 239.166 206.255C239.166 207.844 240.447 209.139 242.031 209.139H272.492C274.076 209.139 275.357 207.844 275.357 206.255ZM252.289 112.779C252.289 110.938 250.805 109.441 248.976 109.441C247.147 109.441 245.664 110.938 245.664 112.779C245.664 114.62 247.147 116.117 248.976 116.117C250.805 116.117 252.289 114.62 252.289 112.779ZM262.234 112.779C262.234 110.938 260.751 109.441 258.922 109.441C257.093 109.441 255.609 110.938 255.609 112.779C255.609 114.62 257.093 116.117 258.922 116.117C260.751 116.117 262.234 114.62 262.234 112.779ZM272.18 112.779C272.18 110.938 270.696 109.441 268.867 109.441C267.038 109.441 265.555 110.938 265.555 112.779C265.555 114.62 267.038 116.117 268.867 116.117C270.696 116.117 272.18 114.62 272.18 112.779ZM282.125 112.779C282.125 110.938 280.642 109.441 278.813 109.441C276.984 109.441 275.501 110.938 275.501 112.779C275.501 114.62 276.984 116.117 278.813 116.117C280.642 116.117 282.125 114.62 282.125 112.779ZM292.071 112.779C292.071 110.938 290.587 109.441 288.758 109.441C286.93 109.441 285.446 110.938 285.446 112.779C285.446 114.62 286.93 116.117 288.758 116.117C290.587 116.117 292.071 114.62 292.071 112.779ZM302.016 112.779C302.016 110.938 300.533 109.441 298.704 109.441C296.875 109.441 295.392 110.938 295.392 112.779C295.392 114.62 296.875 116.117 298.704 116.117C300.533 116.117 302.016 114.62 302.016 112.779ZM252.289 139.482C252.289 137.641 250.805 136.144 248.976 136.144C247.147 136.144 245.664 137.641 245.664 139.482C245.664 141.323 247.147 142.82 248.976 142.82C250.805 142.82 252.289 141.331 252.289 139.482ZM262.234 139.482C262.234 137.641 260.751 136.144 258.922 136.144C257.093 136.144 255.609 137.641 255.609 139.482C255.609 141.323 257.093 142.82 258.922 142.82C260.751 142.82 262.234 141.331 262.234 139.482ZM272.18 139.482C272.18 137.641 270.696 136.144 268.867 136.144C267.038 136.144 265.555 137.641 265.555 139.482C265.555 141.323 267.038 142.82 268.867 142.82C270.696 142.82 272.18 141.331 272.18 139.482ZM282.125 139.482C282.125 137.641 280.642 136.144 278.813 136.144C276.984 136.144 275.501 137.641 275.501 139.482C275.501 141.323 276.984 142.82 278.813 142.82C280.642 142.82 282.125 141.331 282.125 139.482ZM292.071 139.482C292.071 137.641 290.587 136.144 288.758 136.144C286.93 136.144 285.446 137.641 285.446 139.482C285.446 141.323 286.93 142.82 288.758 142.82C290.587 142.82 292.071 141.331 292.071 139.482ZM302.016 139.482C302.016 137.641 300.533 136.144 298.704 136.144C296.875 136.144 295.392 137.641 295.392 139.482C295.392 141.323 296.875 142.82 298.704 142.82C300.533 142.82 302.016 141.331 302.016 139.482ZM286.272 177.879C286.272 176.038 284.789 174.542 282.96 174.542C281.131 174.542 279.647 176.038 279.647 177.879C279.647 179.721 281.131 181.217 282.96 181.217C284.789 181.217 286.272 179.721 286.272 177.879ZM296.218 177.879C296.218 176.038 294.734 174.542 292.905 174.542C291.076 174.542 289.593 176.038 289.593 177.879C289.593 179.721 291.076 181.217 292.905 181.217C294.734 181.217 296.218 179.721 296.218 177.879ZM306.163 177.879C306.163 176.038 304.68 174.542 302.851 174.542C301.022 174.542 299.538 176.038 299.538 177.879C299.538 179.721 301.022 181.217 302.851 181.217C304.68 181.217 306.163 179.721 306.163 177.879ZM316.109 177.879C316.109 176.038 314.625 174.542 312.796 174.542C310.967 174.542 309.484 176.038 309.484 177.879C309.484 179.721 310.967 181.217 312.796 181.217C314.625 181.217 316.109 179.721 316.109 177.879ZM326.054 177.879C326.054 176.038 324.571 174.542 322.742 174.542C320.913 174.542 319.43 176.038 319.43 177.879C319.43 179.721 320.913 181.217 322.742 181.217C324.571 181.217 326.054 179.721 326.054 177.879ZM336 177.879C336 176.038 334.517 174.542 332.688 174.542C330.859 174.542 329.375 176.038 329.375 177.879C329.375 179.721 330.859 181.217 332.688 181.217C334.517 181.217 336 179.721 336 177.879ZM286.272 205.423C286.272 203.581 284.789 202.085 282.96 202.085C281.131 202.085 279.647 203.581 279.647 205.423C279.647 207.264 281.131 208.76 282.96 208.76C284.789 208.76 286.272 207.264 286.272 205.423ZM296.218 205.423C296.218 203.581 294.734 202.085 292.905 202.085C291.076 202.085 289.593 203.581 289.593 205.423C289.593 207.264 291.076 208.76 292.905 208.76C294.734 208.76 296.218 207.264 296.218 205.423ZM306.163 205.423C306.163 203.581 304.68 202.085 302.851 202.085C301.022 202.085 299.538 203.581 299.538 205.423C299.538 207.264 301.022 208.76 302.851 208.76C304.68 208.76 306.163 207.264 306.163 205.423ZM316.109 205.423C316.109 203.581 314.625 202.085 312.796 202.085C310.967 202.085 309.484 203.581 309.484 205.423C309.484 207.264 310.967 208.76 312.796 208.76C314.625 208.76 316.109 207.264 316.109 205.423ZM326.054 205.423C326.054 203.581 324.571 202.085 322.742 202.085C320.913 202.085 319.43 203.581 319.43 205.423C319.43 207.264 320.913 208.76 322.742 208.76C324.571 208.76 326.054 207.264 326.054 205.423ZM336 205.423C336 203.581 334.517 202.085 332.688 202.085C330.859 202.085 329.375 203.581 329.375 205.423C329.375 207.264 330.859 208.76 332.688 208.76C334.517 208.76 336 207.264 336 205.423Z" fill="#606060"/>
</g>
</svg>
