<svg width="251" height="102" viewBox="0 0 251 102" fill="none" xmlns="http://www.w3.org/2000/svg">
<path d="M148.894 76.3799V101.891" stroke="#FAD83D" stroke-width="3" stroke-miterlimit="10"/>
<path d="M160.501 89.1357H137.292" stroke="#FAD83D" stroke-width="3" stroke-miterlimit="10"/>
<path d="M193.971 76.3799V101.891" stroke="#FAD83D" stroke-width="3" stroke-miterlimit="10"/>
<path d="M205.571 89.1357H182.363" stroke="#FAD83D" stroke-width="3" stroke-miterlimit="10"/>
<path d="M239.041 76.3799V101.891" stroke="#FAD83D" stroke-width="3" stroke-miterlimit="10"/>
<path d="M250.642 89.1357H227.44" stroke="#FAD83D" stroke-width="3" stroke-miterlimit="10"/>
<path d="M148.894 32.7043V58.2159" stroke="#FAD83D" stroke-width="3" stroke-miterlimit="10"/>
<path d="M160.501 45.4604H137.292" stroke="#FAD83D" stroke-width="3" stroke-miterlimit="10"/>
<path d="M193.971 32.7043V58.2159" stroke="#FAD83D" stroke-width="3" stroke-miterlimit="10"/>
<path d="M205.571 45.4604H182.363" stroke="#FAD83D" stroke-width="3" stroke-miterlimit="10"/>
<path d="M239.041 32.7043V58.2159" stroke="#FAD83D" stroke-width="3" stroke-miterlimit="10"/>
<path d="M250.642 45.4604H227.44" stroke="#FAD83D" stroke-width="3" stroke-miterlimit="10"/>
<path d="M149 2L148.894 14.5406" stroke="#FAD83D" stroke-width="3" stroke-miterlimit="10"/>
<path d="M160.501 1.78491H137.292" stroke="#FAD83D" stroke-width="3" stroke-miterlimit="10"/>
<path d="M194 2L193.971 14.5406" stroke="#FAD83D" stroke-width="3" stroke-miterlimit="10"/>
<path d="M205.571 1.78491H182.363" stroke="#FAD83D" stroke-width="3" stroke-miterlimit="10"/>
<path d="M239 2L239.041 14.5406" stroke="#FAD83D" stroke-width="3" stroke-miterlimit="10"/>
<path d="M250.642 1.78491H227.44" stroke="#FAD83D" stroke-width="3" stroke-miterlimit="10"/>
<path d="M11.6018 76.3799V101.891" stroke="#FAD83D" stroke-width="3" stroke-miterlimit="10"/>
<path d="M23.2025 89.1357H0.000244141" stroke="#FAD83D" stroke-width="3" stroke-miterlimit="10"/>
<path d="M56.6719 76.3799V101.891" stroke="#FAD83D" stroke-width="3" stroke-miterlimit="10"/>
<path d="M68.2728 89.1357H45.0706" stroke="#FAD83D" stroke-width="3" stroke-miterlimit="10"/>
<path d="M101.743 76.3799V101.891" stroke="#FAD83D" stroke-width="3" stroke-miterlimit="10"/>
<path d="M113.344 89.1357H90.1418" stroke="#FAD83D" stroke-width="3" stroke-miterlimit="10"/>
<path d="M11.6018 32.7043V58.2159" stroke="#FAD83D" stroke-width="3" stroke-miterlimit="10"/>
<path d="M23.2025 45.4604H0.000244141" stroke="#FAD83D" stroke-width="3" stroke-miterlimit="10"/>
<path d="M56.6719 32.7043V58.2159" stroke="#FAD83D" stroke-width="3" stroke-miterlimit="10"/>
<path d="M68.2728 45.4604H45.0706" stroke="#FAD83D" stroke-width="3" stroke-miterlimit="10"/>
<path d="M101.743 32.7043V58.2159" stroke="#FAD83D" stroke-width="3" stroke-miterlimit="10"/>
<path d="M113.344 45.4604H90.1418" stroke="#FAD83D" stroke-width="3" stroke-miterlimit="10"/>
<path d="M12 2L11.6018 14.5406" stroke="#FAD83D" stroke-width="3" stroke-miterlimit="10"/>
<path d="M23.2025 1.78491H0.000244141" stroke="#FAD83D" stroke-width="3" stroke-miterlimit="10"/>
<path d="M57 2L56.6719 14.5406" stroke="#FAD83D" stroke-width="3" stroke-miterlimit="10"/>
<path d="M68.2728 1.78491H45.0706" stroke="#FAD83D" stroke-width="3" stroke-miterlimit="10"/>
<path d="M102 2L101.743 14.5406" stroke="#FAD83D" stroke-width="3" stroke-miterlimit="10"/>
<path d="M113.344 1.78491H90.1418" stroke="#FAD83D" stroke-width="3" stroke-miterlimit="10"/>
</svg>
