<svg width="90" height="76" viewBox="0 0 90 76" fill="none" xmlns="http://www.w3.org/2000/svg">
<path d="M24.0238 47.7442L20.6016 51.4097L24.0238 55.0751L27.4461 51.4097L24.0238 47.7442Z" fill="#5B3586"/>
<path d="M24.0228 68.5489L20.6006 72.2144L24.0228 75.8798L27.4451 72.2144L24.0228 68.5489Z" fill="#5B3586"/>
<path d="M24.0219 22.6944L20.5996 26.3599L24.0219 30.0253L27.4441 26.3599L24.0219 22.6944Z" fill="#5B3586"/>
<path d="M3.42225 22.6944L0 26.3599L3.42225 30.0253L6.8445 26.3599L3.42225 22.6944Z" fill="#5B3586"/>
<path d="M44.6942 47.7442L41.272 51.4097L44.6942 55.0751L48.1165 51.4097L44.6942 47.7442Z" fill="#5B3586"/>
<path d="M44.6947 22.6944L41.2725 26.3599L44.6947 30.0253L48.117 26.3599L44.6947 22.6944Z" fill="#5B3586"/>
<path d="M44.6928 0.00106302L41.2705 3.6665L44.6928 7.33194L48.115 3.6665L44.6928 0.00106302Z" fill="#5B3586"/>
<path d="M65.3646 22.6944L61.9424 26.3599L65.3646 30.0253L68.7869 26.3599L65.3646 22.6944Z" fill="#5B3586"/>
<path d="M65.3637 8.64571e-05L61.9414 3.66553L65.3637 7.33096L68.7859 3.66552L65.3637 8.64571e-05Z" fill="#5B3586"/>
<path d="M86.0365 22.6944L82.6143 26.3599L86.0365 30.0253L89.4588 26.3599L86.0365 22.6944Z" fill="#5B3586"/>
</svg>
