<svg width="81" height="65" viewBox="0 0 81 65" fill="none" xmlns="http://www.w3.org/2000/svg">
<path d="M58.8166 23.7752L61.8927 20.6776L58.8166 17.5801L55.7404 20.6776L58.8166 23.7752Z" fill="#5B3586"/>
<path d="M58.8166 6.19505L61.8927 3.0975L58.8166 -4.41029e-05L55.7404 3.0975L58.8166 6.19505Z" fill="#5B3586"/>
<path d="M58.8173 44.9461L61.8934 41.8485L58.8173 38.751L55.7412 41.8485L58.8173 44.9461Z" fill="#5B3586"/>
<path d="M77.3339 44.9461L80.41 41.8485L77.3339 38.751L74.2578 41.8485L77.3339 44.9461Z" fill="#5B3586"/>
<path d="M40.2355 23.7751L43.3116 20.6775L40.2355 17.58L37.1594 20.6775L40.2355 23.7751Z" fill="#5B3586"/>
<path d="M40.2365 44.9463L43.3126 41.8487L40.2365 38.7512L37.1604 41.8487L40.2365 44.9463Z" fill="#5B3586"/>
<path d="M40.2372 64.1228L43.3134 61.0253L40.2372 57.9277L37.1611 61.0253L40.2372 64.1228Z" fill="#5B3586"/>
<path d="M21.6562 44.9461L24.7323 41.8485L21.6562 38.751L18.58 41.8485L21.6562 44.9461Z" fill="#5B3586"/>
<path d="M21.6562 64.1228L24.7323 61.0253L21.6562 57.9277L18.58 61.0253L21.6562 64.1228Z" fill="#5B3586"/>
<path d="M3.07609 44.9451L6.15222 41.8475L3.07609 38.75L-3.36017e-05 41.8475L3.07609 44.9451Z" fill="#5B3586"/>
</svg>
