<svg width="97" height="122" viewBox="0 0 97 122" fill="none" xmlns="http://www.w3.org/2000/svg">
<g clip-path="url(#clip0_3410_3024)">
<path d="M35.9663 32.7613L31.2803 28.0938L26.5943 32.7613L31.2803 37.4288L35.9663 32.7613Z" fill="white"/>
<path d="M9.37252 32.7613L4.68652 28.0938L0.000526217 32.7613L4.68652 37.4288L9.37252 32.7613Z" fill="white"/>
<path d="M67.9917 32.7593L63.3057 28.0918L58.6197 32.7593L63.3057 37.4268L67.9917 32.7593Z" fill="white"/>
<path d="M67.9887 4.66751L63.3027 0L58.6167 4.66751L63.3027 9.33502L67.9887 4.66751Z" fill="white"/>
<path d="M35.9672 60.9517L31.2812 56.2842L26.5953 60.9517L31.2812 65.6192L35.9672 60.9517Z" fill="white"/>
<path d="M67.9926 60.9497L63.3066 56.2822L58.6206 60.9497L63.3066 65.6172L67.9926 60.9497Z" fill="white"/>
<path d="M97.0053 60.9517L92.3193 56.2842L87.6333 60.9517L92.3193 65.6192L97.0053 60.9517Z" fill="white"/>
<path d="M67.9887 89.146L63.3027 84.4785L58.6167 89.146L63.3027 93.8135L67.9887 89.146Z" fill="white"/>
<path d="M97.0014 89.147L92.3154 84.4795L87.6294 89.147L92.3154 93.8145L97.0014 89.147Z" fill="white"/>
<path d="M67.9897 117.336L63.3037 112.669L58.6177 117.336L63.3037 122.004L67.9897 117.336Z" fill="white"/>
</g>
<defs>
<clipPath id="clip0_3410_3024">
<rect width="97" height="122" fill="white"/>
</clipPath>
</defs>
</svg>
